<svg width="55" height="54" viewBox="0 0 55 54" fill="none" xmlns="http://www.w3.org/2000/svg">
<g clip-path="url(#clip0_358_1584)">
<path opacity="0.07" d="M39.3743 12.1888C39.3806 12.1884 39.3855 12.1866 39.3918 12.1862C39.6073 12.1736 39.8069 12.1412 39.9941 12.0951C40.0583 12.0792 40.1139 12.0551 40.1748 12.0355C40.2972 11.9962 40.4158 11.9539 40.5235 11.9005C40.5849 11.8701 40.6397 11.8348 40.6962 11.8001C40.789 11.743 40.8759 11.6822 40.9551 11.6144C41.0044 11.5721 41.0507 11.5288 41.0945 11.4827C41.1655 11.4078 41.227 11.3275 41.2833 11.2432C41.3166 11.1934 41.3514 11.1455 41.3793 11.0927C41.4315 10.9941 41.4693 10.8885 41.5026 10.7802C41.5172 10.7328 41.538 10.6888 41.5489 10.6396C41.5844 10.4788 41.6029 10.3105 41.5971 10.1338C41.5965 10.1138 41.5899 10.0923 41.5887 10.072C41.5804 9.93129 41.5651 9.78813 41.5298 9.63983C41.5278 9.64436 41.5238 9.64768 41.5218 9.65222C41.4784 9.46526 41.4121 9.27348 41.3268 9.07837L38.1506 12.2546L39.3743 12.1888Z" fill="#040000"/>
<path d="M45.8949 20.0127V49.6058C45.8949 50.6706 45.0282 51.5456 43.9551 51.5456H5.30662C4.23353 51.5456 3.36682 50.6706 3.36682 49.6058V20.0127C3.36682 18.9478 4.23353 18.0728 5.30662 18.0728H43.9551C45.0282 18.0728 45.8949 18.9477 45.8949 20.0127Z" fill="#FDEAD0"/>
<path opacity="0.1" d="M45.8949 20.0127V29.9679H3.3667V20.0127C3.3667 18.9478 4.23341 18.0728 5.3065 18.0728H43.955C45.0282 18.0728 45.8949 18.9477 45.8949 20.0127Z" fill="#191919"/>
<path d="M48.5117 15.869V23.2405C48.5117 23.5212 48.4704 23.7935 48.3962 24.0577C48.0742 25.1885 47.092 26.0471 45.895 26.1957C45.7795 26.2122 45.6556 26.2205 45.5318 26.2205H3.72997C3.60614 26.2205 3.48231 26.2122 3.36684 26.1957C1.89739 26.014 0.75 24.751 0.75 23.2404V15.8689C0.75 14.2344 2.08726 12.8889 3.72997 12.8889H45.5318C47.1744 12.889 48.5117 14.2345 48.5117 15.869Z" fill="#FDEAD0"/>
<path d="M29.5424 13.6152C29.5424 13.7884 29.5259 13.9535 29.4764 14.1104C29.1131 15.6293 27.0825 16.7849 24.6309 16.7849C22.1792 16.7849 20.1485 15.6293 19.7854 14.1104C19.7359 13.9535 19.7194 13.7884 19.7194 13.6152C19.7194 13.4418 19.7359 13.2767 19.7854 13.1198C19.8019 13.0373 19.8184 12.963 19.8514 12.8887C19.8514 12.8722 19.8597 12.8639 19.868 12.8557C19.8762 12.8144 19.8927 12.7731 19.9175 12.7318C20.1321 12.2448 20.52 11.8073 21.0401 11.4606C21.6427 11.0397 22.4104 10.726 23.2854 10.5691C23.7064 10.4866 24.1603 10.4453 24.6309 10.4453C25.1014 10.4453 25.5554 10.4866 25.9764 10.5691C26.8514 10.726 27.6191 11.0397 28.2217 11.4606C28.7418 11.8073 29.1297 12.2448 29.3444 12.7318C29.3691 12.7731 29.3856 12.8144 29.3939 12.8557C29.4022 12.8639 29.4104 12.8722 29.4104 12.8887C29.4434 12.963 29.4599 13.0373 29.4765 13.1198C29.5259 13.2767 29.5424 13.4417 29.5424 13.6152Z" fill="url(#paint0_linear_358_1584)"/>
<path d="M29.4788 26.0896H19.7829V51.5244H29.4788V26.0896Z" fill="#B82E4B"/>
<path d="M29.4765 12.8552H19.7855V26.2196H29.4765V12.8552Z" fill="#D63F62"/>
<path d="M23.7146 11.7083C23.7146 11.9642 23.632 12.187 23.4669 12.3686C23.4422 12.4016 23.4009 12.4347 23.3679 12.4594C23.0459 12.7318 22.5176 12.8639 21.7995 12.8309L19.9174 12.7318L9.88794 12.187C9.10368 12.1457 8.50114 11.8733 8.1214 11.4441C8.03884 11.345 7.96455 11.246 7.8986 11.1387C7.70048 10.7919 7.62618 10.3792 7.68397 9.92523C7.68397 9.88396 7.69222 9.84268 7.70873 9.79315C7.70873 9.74362 7.71699 9.69408 7.74175 9.64455C7.79128 9.40515 7.88209 9.16574 8.00592 8.91818L11.8609 1.39809C12.7276 -0.30241 14.4198 -0.475671 15.6167 1.01019L23.0954 10.3132C23.1697 10.404 23.2275 10.4866 23.2853 10.5691C23.3679 10.6847 23.4339 10.7919 23.4834 10.8993C23.5247 10.9736 23.5577 11.0479 23.5825 11.1139C23.6155 11.1882 23.6403 11.2625 23.6568 11.3285C23.6733 11.3946 23.6898 11.4606 23.6981 11.5267C23.7063 11.5845 23.7146 11.6505 23.7146 11.7083Z" fill="url(#paint1_linear_358_1584)"/>
<path opacity="0.07" d="M23.7146 11.7082C23.7146 11.9641 23.632 12.1869 23.4669 12.3685C23.4422 12.4016 23.4009 12.4346 23.3679 12.4594C23.0459 12.7318 22.5176 12.8639 21.7995 12.8308L19.9174 12.7318L9.88794 12.1869C9.10368 12.1456 8.50114 11.8732 8.1214 11.444C8.03884 11.345 7.96455 11.2459 7.8986 11.1386C7.70048 10.7919 7.62618 10.3791 7.68397 9.92517C7.68397 9.88389 7.69222 9.84261 7.70873 9.79308C7.70873 9.74355 7.71699 9.69402 7.7335 9.63623L7.74175 9.64449C8.03894 10.3296 8.76531 10.8001 9.80538 10.8497L21.0401 11.4605L21.7169 11.4935C22.6166 11.543 23.2275 11.3119 23.4834 10.8991C23.5247 10.9734 23.5577 11.0477 23.5825 11.1137C23.6155 11.188 23.6403 11.2623 23.6568 11.3284C23.6733 11.3944 23.6898 11.4605 23.6981 11.5265C23.7063 11.5844 23.7146 11.6504 23.7146 11.7082Z" fill="#191919"/>
<path d="M41.3634 11.1385C41.2974 11.2458 41.2231 11.3449 41.1405 11.4439C40.7609 11.8731 40.1582 12.1455 39.3741 12.1868L29.3446 12.7317L27.4624 12.8307C26.7443 12.8637 26.216 12.7317 25.894 12.4592C25.861 12.4345 25.8197 12.4015 25.795 12.3684C25.6299 12.1868 25.5473 11.9639 25.5473 11.7081C25.5473 11.6503 25.5556 11.5843 25.5638 11.5265C25.5721 11.4604 25.5886 11.3944 25.6051 11.3284C25.6216 11.2623 25.6464 11.188 25.6794 11.1137C25.7042 11.0477 25.7372 10.9734 25.7785 10.8991C25.828 10.7918 25.894 10.6844 25.9766 10.569C26.0344 10.4864 26.0922 10.4039 26.1665 10.3131L33.6452 1.01002C34.3138 0.176334 35.1393 -0.129113 35.8904 0.0606591C36.4766 0.200999 37.0213 0.646787 37.401 1.39792L37.5827 1.7529L41.256 8.91801C41.3798 9.16567 41.4706 9.40497 41.5202 9.64438C41.5449 9.69391 41.5532 9.74344 41.5532 9.79297C41.5697 9.8425 41.5779 9.88378 41.5779 9.92506C41.6358 10.3791 41.5615 10.7918 41.3634 11.1385Z" fill="url(#paint2_linear_358_1584)"/>
<path opacity="0.07" d="M27.4581 12.8289L39.3742 12.1883C41.0018 12.101 41.8577 11.0139 41.53 9.63965C41.2293 10.3294 40.5035 10.7967 39.4602 10.8529L27.5446 11.4928C26.6417 11.5412 26.036 11.3125 25.7761 10.9C25.1556 12.0855 25.8136 12.9175 27.4581 12.8289Z" fill="#191919"/>
<path opacity="0.03" d="M48.5117 15.8688V23.2403C48.5117 23.521 48.4704 23.7933 48.3962 24.0575C48.0743 25.1801 47.092 26.0304 45.895 26.1789V49.6058C45.895 50.6706 45.0283 51.5456 43.9552 51.5456H5.30662C4.23353 51.5456 3.36682 50.6706 3.36682 49.6058V47.0386L19.7854 30.6199L20.4375 29.9679L24.1851 26.2203L32.3326 18.0729L37.5165 12.8889H45.5318C47.1744 12.8888 48.5117 14.2343 48.5117 15.8688Z" fill="#191919"/>
</g>
<defs>
<linearGradient id="paint0_linear_358_1584" x1="19.7193" y1="13.6151" x2="29.5424" y2="13.6151" gradientUnits="userSpaceOnUse">
<stop offset="0.0338" stop-color="#B6274B"/>
<stop offset="0.9903" stop-color="#B52323"/>
</linearGradient>
<linearGradient id="paint1_linear_358_1584" x1="7.66492" y1="6.41796" x2="23.7146" y2="6.41796" gradientUnits="userSpaceOnUse">
<stop offset="0.0338" stop-color="#C43459"/>
<stop offset="0.9903" stop-color="#C3302B"/>
</linearGradient>
<linearGradient id="paint2_linear_358_1584" x1="25.5474" y1="6.42103" x2="41.5971" y2="6.42103" gradientUnits="userSpaceOnUse">
<stop offset="0.0338" stop-color="#C43459"/>
<stop offset="0.9903" stop-color="#C3302B"/>
</linearGradient>
<clipPath id="clip0_358_1584">
<rect width="54" height="54" fill="white" transform="translate(0.75)"/>
</clipPath>
</defs>
</svg>
