<svg width="61" height="60" viewBox="0 0 61 60" fill="none" xmlns="http://www.w3.org/2000/svg">
<path d="M13.5583 50.353L13.5583 35.353H4.18335L4.18335 50.353H13.5583Z" fill="#6DD0FC"/>
<path d="M12.2178 48.4664V35.3555H4.1834V48.4664H12.2178Z" fill="#A4ECFF"/>
<path d="M13.5583 50.8242H4.18335C4.05903 50.8242 3.9398 50.7748 3.85189 50.6869C3.76399 50.599 3.7146 50.4798 3.7146 50.3555V35.3555C3.7146 35.2311 3.76399 35.1119 3.85189 35.024C3.9398 34.9361 4.05903 34.8867 4.18335 34.8867H13.5583C13.6827 34.8867 13.8019 34.9361 13.8898 35.024C13.9777 35.1119 14.0271 35.2311 14.0271 35.3555V50.3555C14.0271 50.4798 13.9777 50.599 13.8898 50.6869C13.8019 50.7748 13.6827 50.8242 13.5583 50.8242ZM4.6521 49.8867H13.0896V35.8242H4.6521V49.8867Z" fill="#2FB1EA"/>
<path d="M18.6208 49.418V36.293H13.5607V49.418H18.6208Z" fill="#CBECF9"/>
<path d="M17.3318 47.9016V36.293H14.5193V47.9016H17.3318Z" fill="white"/>
<path d="M18.6302 49.8867H13.5583C13.434 49.8867 13.3148 49.8373 13.2269 49.7494C13.139 49.6615 13.0896 49.5423 13.0896 49.418V36.293C13.0896 36.1686 13.139 36.0494 13.2269 35.9615C13.3148 35.8736 13.434 35.8242 13.5583 35.8242H18.6302C18.7545 35.8242 18.8738 35.8736 18.9617 35.9615C19.0496 36.0494 19.099 36.1686 19.099 36.293V49.418C19.099 49.5423 19.0496 49.6615 18.9617 49.7494C18.8738 49.8373 18.7545 49.8867 18.6302 49.8867ZM14.0388 48.9492H18.1615V36.7617H14.0271L14.0388 48.9492Z" fill="#2FB1EA"/>
<path d="M37.1459 38.6368V48.9329C37.1459 49.6788 36.8496 50.3942 36.3221 50.9216C35.7947 51.449 35.0793 51.7454 34.3334 51.7454H30.8623C29.1076 51.7434 27.3936 51.2169 25.9404 50.2336L25.5818 49.9993C24.1286 49.016 22.4146 48.4895 20.6599 48.4876H18.6302V37.2375H21.4427C21.7922 37.2304 22.1264 37.0933 22.3802 36.8532L27.0677 32.4797V37.2305H35.7396C36.1126 37.2305 36.4703 37.3787 36.734 37.6424C36.9977 37.9061 37.1459 38.2638 37.1459 38.6368Z" fill="#FFC444"/>
<path d="M34.3334 37.6992H26.0623V33.4265L22.3802 36.8531C22.1199 37.0956 21.7774 37.2304 21.4216 37.2304H19.9919V46.4226H20.6341C22.3888 46.4246 24.1028 46.951 25.556 47.9343L25.9146 48.1687C27.3678 49.152 29.0818 49.6784 30.8365 49.6804H32.9271C33.673 49.6804 34.3884 49.3841 34.9158 48.8567C35.4433 48.3292 35.7396 47.6138 35.7396 46.8679V39.1054C35.7396 38.7325 35.5914 38.3748 35.3277 38.1111C35.064 37.8473 34.7063 37.6992 34.3334 37.6992Z" fill="#FFE76E"/>
<path d="M34.3334 52.214H30.8623C29.0085 52.2182 27.1964 51.6645 25.6615 50.6249L25.3052 50.3905C23.9278 49.4559 22.3011 48.957 20.6365 48.9585H18.6302C18.5059 48.9585 18.3867 48.9091 18.2988 48.8212C18.2109 48.7333 18.1615 48.6141 18.1615 48.4898V37.2398C18.1615 37.1154 18.2109 36.9962 18.2988 36.9083C18.3867 36.8204 18.5059 36.771 18.6302 36.771H21.4427C21.6801 36.7714 21.9087 36.6818 22.0826 36.5202L26.7701 32.1468C26.8369 32.0849 26.9203 32.0437 27.01 32.0284C27.0998 32.0131 27.1921 32.0243 27.2757 32.0606C27.3592 32.0969 27.4303 32.1567 27.4804 32.2328C27.5305 32.3089 27.5573 32.3979 27.5576 32.489V36.771H35.7607C36.258 36.771 36.7349 36.9686 37.0865 37.3202C37.4382 37.6718 37.6357 38.1487 37.6357 38.646V48.9421C37.6345 49.374 37.548 49.8014 37.3813 50.1998C37.2145 50.5982 36.9707 50.9597 36.6639 51.2637C36.3571 51.5677 35.9933 51.8081 35.5934 51.9712C35.1934 52.1342 34.7653 52.2168 34.3334 52.214ZM19.099 48.0116H20.6506C22.5022 48.0095 24.3117 48.564 25.8443 49.603L26.2006 49.8374C27.578 50.7721 29.2047 51.271 30.8693 51.2694H34.3334C34.955 51.2694 35.5511 51.0225 35.9907 50.583C36.4302 50.1434 36.6771 49.5473 36.6771 48.9257V38.6366C36.6771 38.388 36.5784 38.1495 36.4025 37.9737C36.2267 37.7979 35.9883 37.6991 35.7396 37.6991H27.0677C26.9434 37.6991 26.8242 37.6497 26.7363 37.5618C26.6484 37.4739 26.599 37.3547 26.599 37.2304V33.5554L22.706 37.1952C22.3593 37.5187 21.9029 37.6987 21.4287 37.6991H19.099V48.0116Z" fill="#2FB1EA"/>
<path d="M35.7513 28.7954H27.0795V37.2306H35.7513V28.7954Z" fill="#52E355"/>
<path d="M33.942 30.4897H27.0795V37.2304H33.942V30.4897Z" fill="#90FC95"/>
<path d="M35.7396 37.6992H27.0677C26.9434 37.6992 26.8242 37.6498 26.7363 37.5619C26.6484 37.474 26.599 37.3548 26.599 37.2305V28.793C26.599 28.6686 26.6484 28.5494 26.7363 28.4615C26.8242 28.3736 26.9434 28.3242 27.0677 28.3242H35.7396C35.8639 28.3242 35.9832 28.3736 36.0711 28.4615C36.159 28.5494 36.2084 28.6686 36.2084 28.793V37.2305C36.2084 37.3548 36.159 37.474 36.0711 37.5619C35.9832 37.6498 35.8639 37.6992 35.7396 37.6992ZM27.5365 36.7617H35.2709V29.2617H27.5365V36.7617Z" fill="#2FB1EA"/>
<path d="M55.113 34.6876L38.238 28.7836V14.2407L55.113 8.33677C55.3252 8.26176 55.5523 8.23876 55.7752 8.26971C55.9981 8.30065 56.2103 8.38464 56.394 8.51461C56.5777 8.64458 56.7275 8.81675 56.8309 9.01664C56.9343 9.21652 56.9882 9.4383 56.988 9.66334V33.3727C56.9863 33.5968 56.931 33.8171 56.8269 34.0155C56.7227 34.2139 56.5727 34.3845 56.3892 34.5131C56.2058 34.6418 55.9943 34.7247 55.7723 34.755C55.5503 34.7854 55.3243 34.7622 55.113 34.6876Z" fill="#F97171"/>
<path d="M53.2029 32.1258L38.2334 26.8782V14.2407L53.2029 8.78443C54.117 8.46568 55.0779 8.03912 55.0779 9.01881V30.8157C55.0754 31.0393 55.0196 31.2592 54.9152 31.4569C54.8107 31.6547 54.6606 31.8247 54.4772 31.9528C54.2939 32.0809 54.0826 32.1634 53.861 32.1935C53.6394 32.2236 53.4138 32.2004 53.2029 32.1258Z" fill="#FF8888"/>
<path d="M55.5818 35.2501C55.3686 35.2497 55.157 35.2133 54.956 35.1423L38.081 29.2384C37.9892 29.2063 37.9096 29.1464 37.8533 29.067C37.7971 28.9876 37.7669 28.8927 37.767 28.7954V14.2407C37.767 14.1431 37.7976 14.048 37.8543 13.9686C37.911 13.8892 37.9911 13.8295 38.0834 13.7978L54.9584 7.89385C55.241 7.79506 55.5431 7.76537 55.8395 7.80727C56.136 7.84917 56.418 7.96143 56.6622 8.13468C56.9063 8.30792 57.1054 8.53711 57.2429 8.80306C57.3803 9.06902 57.4521 9.36402 57.4521 9.66339V33.3728C57.4521 33.87 57.2546 34.347 56.903 34.6986C56.5513 35.0502 56.0744 35.2478 55.5771 35.2478L55.5818 35.2501ZM55.2654 34.2587C55.4068 34.3081 55.558 34.323 55.7063 34.3019C55.8546 34.2809 55.9957 34.2247 56.1178 34.1379C56.2399 34.0512 56.3394 33.9364 56.4081 33.8033C56.4767 33.6702 56.5124 33.5225 56.5123 33.3728V9.66339C56.5124 9.5136 56.4767 9.36596 56.4081 9.23283C56.3394 9.0997 56.2399 8.98495 56.1178 8.8982C55.9957 8.81144 55.8546 8.75521 55.7063 8.7342C55.558 8.71319 55.4068 8.72802 55.2654 8.77745L38.7021 14.5735V28.4649L55.2654 34.2587Z" fill="#2FB1EA"/>
<path d="M38.2333 14.2407H25.5935V28.7954H38.2333V14.2407Z" fill="#CBECF9"/>
<path d="M38.2333 14.2407H25.5935V26.8806H38.2333V14.2407Z" fill="white"/>
<path d="M38.2333 29.2642H25.5935C25.4692 29.2642 25.35 29.2148 25.262 29.1269C25.1741 29.039 25.1248 28.9197 25.1248 28.7954V14.2407C25.1248 14.1164 25.1741 13.9972 25.262 13.9093C25.35 13.8214 25.4692 13.772 25.5935 13.772H38.2333C38.3577 13.772 38.4769 13.8214 38.5648 13.9093C38.6527 13.9972 38.7021 14.1164 38.7021 14.2407V28.7954C38.7021 28.9197 38.6527 29.039 38.5648 29.1269C38.4769 29.2148 38.3577 29.2642 38.2333 29.2642ZM26.0623 28.3267H37.7646V14.7095H26.0623V28.3267Z" fill="#2FB1EA"/>
<path d="M24.6091 14.2407H25.5935V28.7954H24.6091C22.6791 28.7954 20.828 28.0287 19.4633 26.6639C18.0985 25.2992 17.3318 23.4481 17.3318 21.5181C17.3318 19.588 18.0985 17.737 19.4633 16.3722C20.828 15.0074 22.6791 14.2407 24.6091 14.2407Z" fill="#F97171"/>
<path d="M23.6506 14.2407H25.5912V26.8806H23.6506C21.9723 26.8806 20.3627 26.2139 19.1759 25.0271C17.9892 23.8403 17.3224 22.2308 17.3224 20.5524C17.3268 18.877 17.9954 17.2716 19.1817 16.0884C20.368 14.9052 21.9751 14.2407 23.6506 14.2407Z" fill="#FF8888"/>
<path d="M25.5935 29.2642H24.6091C22.5547 29.2642 20.5845 28.4481 19.1318 26.9954C17.6791 25.5427 16.863 23.5725 16.863 21.5181C16.863 19.4637 17.6791 17.4934 19.1318 16.0408C20.5845 14.5881 22.5547 13.772 24.6091 13.772H25.5935C25.7178 13.772 25.8371 13.8214 25.925 13.9093C26.0129 13.9972 26.0623 14.1164 26.0623 14.2407V28.7954C26.0623 28.9197 26.0129 29.039 25.925 29.1269C25.8371 29.2148 25.7178 29.2642 25.5935 29.2642ZM24.6091 14.7095C22.8034 14.7095 21.0716 15.4268 19.7947 16.7037C18.5179 17.9805 17.8005 19.7123 17.8005 21.5181C17.8005 23.3238 18.5179 25.0556 19.7947 26.3325C21.0716 27.6093 22.8034 28.3267 24.6091 28.3267H25.1248V14.7095H24.6091Z" fill="#2FB1EA"/>
<path d="M8.87085 47.7188C9.6475 47.7188 10.2771 47.0892 10.2771 46.3125C10.2771 45.5358 9.6475 44.9062 8.87085 44.9062C8.0942 44.9062 7.4646 45.5358 7.4646 46.3125C7.4646 47.0892 8.0942 47.7188 8.87085 47.7188Z" fill="#2FB1EA"/>
<path d="M39.5482 34.7461C40.1954 34.7461 40.7201 34.2214 40.7201 33.5742C40.7201 32.927 40.1954 32.4023 39.5482 32.4023C38.901 32.4023 38.3763 32.927 38.3763 33.5742C38.3763 34.2214 38.901 34.7461 39.5482 34.7461Z" fill="#D4FFD4"/>
<path d="M11.6576 14.8242C12.1754 14.8242 12.5951 14.4045 12.5951 13.8867C12.5951 13.369 12.1754 12.9492 11.6576 12.9492C11.1398 12.9492 10.7201 13.369 10.7201 13.8867C10.7201 14.4045 11.1398 14.8242 11.6576 14.8242Z" fill="#D4FFD4"/>
<path d="M19.8607 10.8398C20.249 10.8398 20.5638 10.525 20.5638 10.1367C20.5638 9.74839 20.249 9.43359 19.8607 9.43359C19.4724 9.43359 19.1576 9.74839 19.1576 10.1367C19.1576 10.525 19.4724 10.8398 19.8607 10.8398Z" fill="#D4FFD4"/>
<path d="M41.6576 49.043C41.9165 49.043 42.1263 48.8331 42.1263 48.5742C42.1263 48.3153 41.9165 48.1055 41.6576 48.1055C41.3987 48.1055 41.1888 48.3153 41.1888 48.5742C41.1888 48.8331 41.3987 49.043 41.6576 49.043Z" fill="#D4FFD4"/>
<path d="M40.9545 45.293C41.0839 45.293 41.1888 45.188 41.1888 45.0586C41.1888 44.9292 41.0839 44.8242 40.9545 44.8242C40.825 44.8242 40.7201 44.9292 40.7201 45.0586C40.7201 45.188 40.825 45.293 40.9545 45.293Z" fill="#D4FFD4"/>
<path d="M58.0638 42.0117C58.7111 42.0117 59.2357 41.4871 59.2357 40.8398C59.2357 40.1926 58.7111 39.668 58.0638 39.668C57.4166 39.668 56.892 40.1926 56.892 40.8398C56.892 41.4871 57.4166 42.0117 58.0638 42.0117Z" fill="#FFBDBD"/>
<path d="M24.7826 54.668C25.3004 54.668 25.7201 54.2482 25.7201 53.7305C25.7201 53.2127 25.3004 52.793 24.7826 52.793C24.2648 52.793 23.8451 53.2127 23.8451 53.7305C23.8451 54.2482 24.2648 54.668 24.7826 54.668Z" fill="#FFBDBD"/>
<path d="M47.7513 41.3086C48.1397 41.3086 48.4545 40.9938 48.4545 40.6055C48.4545 40.2171 48.1397 39.9023 47.7513 39.9023C47.363 39.9023 47.0482 40.2171 47.0482 40.6055C47.0482 40.9938 47.363 41.3086 47.7513 41.3086Z" fill="#FFBDBD"/>
<path d="M3.22009 32.6367C3.47898 32.6367 3.68884 32.4269 3.68884 32.168C3.68884 31.9091 3.47898 31.6992 3.22009 31.6992C2.96121 31.6992 2.75134 31.9091 2.75134 32.168C2.75134 32.4269 2.96121 32.6367 3.22009 32.6367Z" fill="#FFBDBD"/>
<path d="M44.3529 5.80078C44.4823 5.80078 44.5873 5.69585 44.5873 5.56641C44.5873 5.43696 44.4823 5.33203 44.3529 5.33203C44.2235 5.33203 44.1185 5.43696 44.1185 5.56641C44.1185 5.69585 44.2235 5.80078 44.3529 5.80078Z" fill="#FFBDBD"/>
<path d="M29.4701 10.8398C30.1173 10.8398 30.642 10.3152 30.642 9.66797C30.642 9.02076 30.1173 8.49609 29.4701 8.49609C28.8229 8.49609 28.2982 9.02076 28.2982 9.66797C28.2982 10.3152 28.8229 10.8398 29.4701 10.8398Z" fill="#BBF1FF"/>
<path d="M14.9388 31.9336C15.4566 31.9336 15.8763 31.5139 15.8763 30.9961C15.8763 30.4783 15.4566 30.0586 14.9388 30.0586C14.4211 30.0586 14.0013 30.4783 14.0013 30.9961C14.0013 31.5139 14.4211 31.9336 14.9388 31.9336Z" fill="#BBF1FF"/>
<path d="M8.61072 54.1992C8.99904 54.1992 9.31384 53.8844 9.31384 53.4961C9.31384 53.1078 8.99904 52.793 8.61072 52.793C8.22239 52.793 7.90759 53.1078 7.90759 53.4961C7.90759 53.8844 8.22239 54.1992 8.61072 54.1992Z" fill="#BBF1FF"/>
<path d="M8.61072 24.9023C8.8696 24.9023 9.07947 24.6925 9.07947 24.4336C9.07947 24.1747 8.8696 23.9648 8.61072 23.9648C8.35183 23.9648 8.14197 24.1747 8.14197 24.4336C8.14197 24.6925 8.35183 24.9023 8.61072 24.9023Z" fill="#BBF1FF"/>
<path d="M41.0717 11.4258C41.2011 11.4258 41.306 11.3208 41.306 11.1914C41.306 11.062 41.2011 10.957 41.0717 10.957C40.9422 10.957 40.8373 11.062 40.8373 11.1914C40.8373 11.3208 40.9422 11.4258 41.0717 11.4258Z" fill="#BBF1FF"/>
<path d="M3.10291 28.7695C3.75011 28.7695 4.27478 28.2449 4.27478 27.5977C4.27478 26.9504 3.75011 26.4258 3.10291 26.4258C2.4557 26.4258 1.93103 26.9504 1.93103 27.5977C1.93103 28.2449 2.4557 28.7695 3.10291 28.7695Z" fill="#FFF4C5"/>
<path d="M45.1146 46.4062C45.6324 46.4062 46.0521 45.9865 46.0521 45.4688C46.0521 44.951 45.6324 44.5312 45.1146 44.5312C44.5969 44.5312 44.1771 44.951 44.1771 45.4688C44.1771 45.9865 44.5969 46.4062 45.1146 46.4062Z" fill="#FFF4C5"/>
<path d="M43.2982 40.6055C43.6865 40.6055 44.0013 40.2907 44.0013 39.9023C44.0013 39.514 43.6865 39.1992 43.2982 39.1992C42.9099 39.1992 42.5951 39.514 42.5951 39.9023C42.5951 40.2907 42.9099 40.6055 43.2982 40.6055Z" fill="#FFF4C5"/>
<path d="M37.2045 6.85547C37.4634 6.85547 37.6732 6.6456 37.6732 6.38672C37.6732 6.12784 37.4634 5.91797 37.2045 5.91797C36.9456 5.91797 36.7357 6.12784 36.7357 6.38672C36.7357 6.6456 36.9456 6.85547 37.2045 6.85547Z" fill="#FFF4C5"/>
<path d="M49.8607 51.6211C49.9902 51.6211 50.0951 51.5162 50.0951 51.3867C50.0951 51.2573 49.9902 51.1523 49.8607 51.1523C49.7313 51.1523 49.6263 51.2573 49.6263 51.3867C49.6263 51.5162 49.7313 51.6211 49.8607 51.6211Z" fill="#FFF4C5"/>
</svg>
