<svg width="61" height="60" viewBox="0 0 61 60" fill="none" xmlns="http://www.w3.org/2000/svg">
<g clip-path="url(#clip0_358_1508)">
<path d="M30.9166 60.0001C47.4852 60.0001 60.9166 52.5382 60.9166 43.3334C60.9166 34.1287 47.4852 26.6667 30.9166 26.6667C14.3481 26.6667 0.916626 34.1287 0.916626 43.3334C0.916626 52.5382 14.3481 60.0001 30.9166 60.0001Z" fill="#8899A6"/>
<path d="M30.9166 57.0833C47.4852 57.0833 60.9166 49.6214 60.9166 40.4167C60.9166 31.2119 47.4852 23.75 30.9166 23.75C14.3481 23.75 0.916626 31.2119 0.916626 40.4167C0.916626 49.6214 14.3481 57.0833 30.9166 57.0833Z" fill="#CCD6DD"/>
<path d="M55.3749 39.475C55.3749 46.575 44.4249 52.3283 30.9166 52.3283C17.4083 52.3283 6.45825 46.575 6.45825 39.475C6.45825 32.3783 17.4083 26.6233 30.9166 26.6233C44.4233 26.6233 55.3749 32.3783 55.3749 39.475Z" fill="#DD2E44"/>
<path d="M54.6383 37.5717C54.6383 53.9951 7.19495 53.9951 7.19495 37.5717V22.9734H54.6383V37.5717Z" fill="#F4ABBA"/>
<path d="M30.89 30.2766C15.9166 30.2766 7.19329 23.3899 7.19329 23.3899C7.19329 23.3899 7.16663 24.9299 7.16663 26.1982C7.16663 26.1982 7.21996 34.3616 11.4533 34.3616C15.5516 34.3616 15.2533 38.2749 17.8433 38.6799C20.4116 39.0816 20.6966 37.1166 23.885 37.1166C27.0733 37.1166 27.635 40.6266 30.89 40.6266C34.705 40.6266 35.0183 37.1166 38.205 37.1166C41.3916 37.1166 41.7583 39.1566 43.8483 38.5916C46.36 37.9116 45.205 34.3632 50.3266 34.3632C54.56 34.3632 54.665 26.6166 54.665 26.6166C54.665 25.3499 54.6366 23.3916 54.6366 23.3916C54.6366 23.3916 45.865 30.2766 30.89 30.2766Z" fill="#DD2E44"/>
<path d="M55.3749 21.2283C55.3749 28.3267 44.4249 34.0817 30.9166 34.0817C17.4083 34.0817 6.45825 28.3267 6.45825 21.2283C6.45825 14.13 17.4083 8.375 30.9166 8.375C44.4233 8.375 55.3749 14.13 55.3749 21.2283Z" fill="#EA596E"/>
<path d="M43.69 22.9734C42.6817 22.9734 41.865 22.1567 41.865 21.1484V8.37505C41.865 7.89103 42.0573 7.42683 42.3995 7.08458C42.7418 6.74232 43.206 6.55005 43.69 6.55005C44.174 6.55005 44.6382 6.74232 44.9805 7.08458C45.3227 7.42683 45.515 7.89103 45.515 8.37505V21.1484C45.515 22.1567 44.6983 22.9734 43.69 22.9734Z" fill="#FFF8E8"/>
<path d="M43.6899 11.1116C41.7532 11.1116 40.2299 10.225 39.6149 8.73997C39.0816 7.45164 38.8166 4.65664 43.0449 0.429973C43.1296 0.345211 43.2301 0.277968 43.3408 0.23209C43.4515 0.186212 43.5701 0.162598 43.6899 0.162598C43.8097 0.162598 43.9284 0.186212 44.039 0.23209C44.1497 0.277968 44.2502 0.345211 44.3349 0.429973C48.5633 4.65831 48.2982 7.45164 47.7649 8.73997C47.1499 10.225 45.6266 11.1116 43.6899 11.1116Z" fill="#FAAA35"/>
<path d="M30.9167 28.4466C29.9083 28.4466 29.0917 27.6299 29.0917 26.6216V13.8499C29.0917 13.6102 29.1389 13.3729 29.2306 13.1515C29.3223 12.9301 29.4567 12.7289 29.6262 12.5594C29.7957 12.39 29.9969 12.2555 30.2183 12.1638C30.4397 12.0721 30.677 12.0249 30.9167 12.0249C31.1563 12.0249 31.3937 12.0721 31.6151 12.1638C31.8365 12.2555 32.0377 12.39 32.2071 12.5594C32.3766 12.7289 32.511 12.9301 32.6028 13.1515C32.6945 13.3729 32.7417 13.6102 32.7417 13.8499V26.6232C32.7417 27.6299 31.925 28.4466 30.9167 28.4466Z" fill="#FFF8E8"/>
<path d="M30.9166 16.5867C28.9799 16.5867 27.4566 15.7001 26.8416 14.2151C26.3066 12.9267 26.0433 10.1317 30.2716 5.90507C30.3563 5.82031 30.4568 5.75307 30.5675 5.70719C30.6782 5.66131 30.7968 5.6377 30.9166 5.6377C31.0364 5.6377 31.155 5.66131 31.2657 5.70719C31.3764 5.75307 31.4769 5.82031 31.5616 5.90507C35.7899 10.1334 35.5249 12.9267 34.9916 14.2151C34.3766 15.7001 32.8533 16.5867 30.9166 16.5867Z" fill="#FAAA35"/>
<path d="M18.1432 22.9734C17.1349 22.9734 16.3182 22.1567 16.3182 21.1484V8.37505C16.3182 8.13539 16.3654 7.89807 16.4572 7.67665C16.5489 7.45523 16.6833 7.25405 16.8528 7.08458C17.0222 6.91511 17.2234 6.78068 17.4448 6.68897C17.6663 6.59725 17.9036 6.55005 18.1432 6.55005C18.3829 6.55005 18.6202 6.59725 18.8416 6.68897C19.0631 6.78068 19.2642 6.91511 19.4337 7.08458C19.6032 7.25405 19.7376 7.45523 19.8293 7.67665C19.921 7.89807 19.9682 8.13539 19.9682 8.37505V21.1484C19.9682 22.1567 19.1516 22.9734 18.1432 22.9734Z" fill="#FFF8E8"/>
<path d="M18.1433 11.1116C16.2066 11.1116 14.6833 10.225 14.0683 8.73997C13.5333 7.45164 13.27 4.65664 17.4983 0.429973C17.583 0.345211 17.6835 0.277968 17.7942 0.23209C17.9049 0.186212 18.0235 0.162598 18.1433 0.162598C18.2631 0.162598 18.3817 0.186212 18.4924 0.23209C18.6031 0.277968 18.7036 0.345211 18.7883 0.429973C23.0166 4.65831 22.7516 7.45164 22.2183 8.73997C21.6033 10.225 20.08 11.1116 18.1433 11.1116Z" fill="#FAAA35"/>
</g>
<defs>
<clipPath id="clip0_358_1508">
<rect width="60" height="60" fill="white" transform="translate(0.916626)"/>
</clipPath>
</defs>
</svg>
