<svg width="24" height="19" viewBox="0 0 24 19" fill="none" xmlns="http://www.w3.org/2000/svg">
<path d="M1.16602 18.1673H3.33268M3.33268 18.1673H11.9993M3.33268 18.1673V4.30087C3.33268 3.08742 3.33268 2.48024 3.56884 2.01677C3.77656 1.60908 4.10777 1.27786 4.51547 1.07014C4.97894 0.833984 5.58611 0.833984 6.79957 0.833984H8.5329C9.74634 0.833984 10.3528 0.833984 10.8162 1.07014C11.2239 1.27786 11.5557 1.60908 11.7634 2.01677C11.9993 2.47978 11.9993 3.08622 11.9993 4.2973V7.60059M11.9993 18.1673H20.666M11.9993 18.1673V7.60059M11.9993 7.60059L12.3909 7.24882C13.2098 6.5132 13.6193 6.14527 14.0822 6.00574C14.4899 5.8828 14.9251 5.8828 15.3329 6.00574C15.7959 6.1453 16.2056 6.51303 17.0246 7.24882L19.5163 9.48733C19.9396 9.86769 20.1509 10.0581 20.3028 10.2863C20.4373 10.4884 20.5373 10.7116 20.5978 10.9469C20.666 11.2122 20.666 11.4972 20.666 12.0662V18.1673M20.666 18.1673H22.8327" stroke="#AAAAAA" stroke-width="1.25" stroke-linecap="round" stroke-linejoin="round"/>
</svg>
