<svg width="34" height="34" viewBox="0 0 34 34" fill="none" xmlns="http://www.w3.org/2000/svg">
<path d="M6.07101 6.68182e-05C5.73575 -0.00418314 5.46036 0.264171 5.45611 0.599432C5.45453 0.719888 5.48889 0.838037 5.55471 0.938943L10.8918 12.6811C7.63391 14.7214 5.46388 18.3425 5.46388 22.4642C5.46388 28.828 10.6357 33.9998 16.9995 33.9998C23.3632 33.9998 28.5351 28.828 28.5351 22.4642C28.5351 18.3424 26.365 14.7214 23.1071 12.6811L28.4424 0.943193C28.6281 0.66391 28.5521 0.287 28.2728 0.101459C28.1708 0.0337022 28.0506 -0.00175459 27.9281 6.68182e-05H20.6424C20.3667 -0.003576 20.1231 0.179051 20.0492 0.444734L16.9996 7.15408L13.9493 0.443762C13.8753 0.178565 13.6319 -0.003576 13.3567 6.68182e-05H6.07101ZM7.01402 1.21434H8.10881L12.8736 11.6915C12.5614 11.8113 12.2554 11.944 11.957 12.0896L7.01402 1.21434ZM9.44257 1.21434H12.9657L17.3845 10.9358C17.2567 10.9316 17.1284 10.9286 16.9996 10.9286C15.9754 10.9286 14.9823 11.0634 14.0365 11.3148L9.44257 1.21434ZM21.0334 1.21434H24.5565L19.9652 11.3156C19.5768 11.2123 19.1805 11.1283 18.7773 11.0656L17.6665 8.62165L21.0334 1.21434ZM25.8905 1.21434H26.985L22.0421 12.0896C21.7444 11.9444 21.4392 11.812 21.1279 11.6924L25.8905 1.21434ZM16.9995 12.1429C22.7069 12.1429 27.3208 16.7568 27.3208 22.4642C27.3208 28.1717 22.7069 32.7856 16.9995 32.7856C11.292 32.7856 6.67815 28.1717 6.67815 22.4642C6.67815 16.7568 11.292 12.1429 16.9995 12.1429ZM16.9995 13.8269C12.2364 13.8269 8.36198 17.7013 8.36198 22.4644C8.36198 27.2275 12.2364 31.1016 16.9995 31.1016C21.7626 31.1016 25.637 27.2275 25.637 22.4644C25.637 17.7011 21.7627 13.8269 16.9995 13.8269ZM16.9995 15.0411C21.1064 15.0411 24.4227 18.3574 24.4227 22.4644C24.4227 26.5713 21.1064 29.8873 16.9995 29.8873C12.8926 29.8873 9.57626 26.5713 9.57626 22.4644C9.57626 18.3574 12.8926 15.0411 16.9995 15.0411ZM17.0208 18.2459C16.7924 18.238 16.5791 18.3589 16.4685 18.5589L15.3789 20.5311L13.0633 21.0265C12.7354 21.0967 12.5265 21.4195 12.5968 21.7475C12.6198 21.8552 12.6718 21.9545 12.747 22.035L14.2859 23.6807L14.0416 26.0359C14.0071 26.3695 14.2495 26.6679 14.5831 26.7024C14.6926 26.7137 14.8031 26.6951 14.9028 26.6485L16.9436 25.6935L19.1082 26.6535C19.1846 26.6874 19.2672 26.7052 19.3508 26.7057C19.6862 26.7075 19.9595 26.4372 19.9613 26.1018C19.9614 26.0757 19.96 26.0497 19.9567 26.0239L19.679 23.7879L21.2611 22.026C21.4851 21.7765 21.4644 21.3925 21.2148 21.1685C21.1329 21.0949 21.0324 21.045 20.9244 21.0242L18.7121 20.5973L17.5254 18.5482C17.4205 18.3673 17.2298 18.253 17.0208 18.2459ZM17.0123 20.0856L17.7999 21.4455C17.8881 21.5976 18.0378 21.7041 18.2105 21.7374L19.6405 22.0131L18.5907 23.1824C18.4732 23.3131 18.4182 23.4884 18.4398 23.6628L18.6196 25.1083L17.1828 24.4711C17.0222 24.3999 16.8385 24.4017 16.6794 24.4763L15.3603 25.0939L15.5223 23.5305C15.5404 23.3558 15.482 23.1818 15.362 23.0533L14.3672 21.9893L15.9037 21.6604C16.0755 21.6236 16.2231 21.5142 16.3081 21.3603L17.0123 20.0856Z" fill="#FFC900"/>
</svg>
