<svg width="54" height="54" viewBox="0 0 54 54" fill="none" xmlns="http://www.w3.org/2000/svg">
<path fill-rule="evenodd" clip-rule="evenodd" d="M11.25 42.75C11.25 41.5073 12.2574 40.5 13.5 40.5H40.5C41.7427 40.5 42.75 41.5073 42.75 42.75C42.75 43.9927 41.7427 45 40.5 45H13.5C12.2574 45 11.25 43.9927 11.25 42.75Z" fill="url(#paint0_linear_4960_25399)"/>
<path fill-rule="evenodd" clip-rule="evenodd" d="M22.2268 10.591C24.8628 7.95501 29.1366 7.95501 31.7727 10.591L37.5474 16.3656C38.2323 17.0504 39.2783 17.2202 40.1445 16.7871L41.7436 15.9876C45.1971 14.2608 49.0143 17.5715 47.7934 21.2345L43.6599 33.6346C42.7413 36.3909 40.1619 38.25 37.2564 38.25H16.7432C13.8378 38.25 11.2584 36.3909 10.3396 33.6346L6.20625 21.2345C4.98525 17.5715 8.80251 14.2608 12.256 15.9876L13.855 16.7871C14.7212 17.2202 15.7674 17.0504 16.4522 16.3656L22.2268 10.591Z" fill="url(#paint1_linear_4960_25399)"/>
<defs>
<linearGradient id="paint0_linear_4960_25399" x1="27" y1="40.5" x2="27" y2="45" gradientUnits="userSpaceOnUse">
<stop stop-color="#CD7F32"/>
<stop offset="1" stop-color="#FFB88F"/>
</linearGradient>
<linearGradient id="paint1_linear_4960_25399" x1="26.9998" y1="8.61401" x2="26.9998" y2="38.25" gradientUnits="userSpaceOnUse">
<stop stop-color="#CD7F32"/>
<stop offset="1" stop-color="#FFB88F"/>
</linearGradient>
</defs>
</svg>
