<svg width="61" height="60" viewBox="0 0 61 60" fill="none" xmlns="http://www.w3.org/2000/svg">
<g clip-path="url(#clip0_358_1754)">
<path d="M47.074 7.9154C47.0387 7.80666 46.9504 7.72322 46.8398 7.69392L45.133 7.24064C44.9515 7.19248 44.7944 7.07834 44.6924 6.92084L43.7327 5.43854C43.6706 5.34244 43.564 5.28455 43.4496 5.28467C43.3352 5.28467 43.2286 5.34279 43.1666 5.43877L42.2082 6.92201C42.1063 7.07963 41.9494 7.19388 41.7679 7.24216L40.0615 7.69685C39.951 7.72626 39.8628 7.80982 39.8277 7.91869C39.7923 8.02755 39.8145 8.14673 39.8869 8.23544L41.0011 9.60536C41.1197 9.75103 41.1797 9.93548 41.1695 10.123L41.0748 11.8865C41.0687 12.0008 41.1208 12.1102 41.2135 12.1775C41.3062 12.2448 41.4265 12.2604 41.5331 12.2191L43.1804 11.5827C43.3555 11.515 43.5495 11.5149 43.7247 11.5824L45.3725 12.2175C45.4793 12.2586 45.5995 12.2429 45.6921 12.1755C45.7845 12.1082 45.8367 11.9986 45.8304 11.8844L45.734 10.121C45.7238 9.93349 45.7836 9.74903 45.9021 9.60325L47.0152 8.23251C47.0872 8.14345 47.1093 8.02415 47.074 7.9154Z" fill="#25EE51"/>
<path d="M60.2038 44.0964L51.9547 33.4811H54.4912C54.8774 33.4811 55.23 33.2466 55.3998 32.8996C55.5695 32.5529 55.5268 32.1248 55.2899 31.8199L49.1255 23.8874H50.325C50.7111 23.8874 51.0637 23.6844 51.2335 23.3374C51.4033 22.9906 51.3606 22.5942 51.1236 22.2893L44.2506 13.4433C44.059 13.1966 43.7643 13.0515 43.452 13.0515C43.1396 13.0515 42.8448 13.1933 42.6533 13.4401L35.7802 22.2813C35.5432 22.5862 35.5006 22.9909 35.6704 23.3376C35.8401 23.6846 36.1926 23.8874 36.5787 23.8874H37.7804L31.6138 31.8256C31.3767 32.1305 31.3341 32.5517 31.504 32.8986C31.6737 33.2455 32.0262 33.481 32.4123 33.481H34.9515L26.6997 44.103C26.4627 44.4079 26.4201 44.83 26.5898 45.1768C26.7596 45.5236 27.1121 45.7611 27.4983 45.7611H41.0182V54.1743C41.0182 54.4878 41.3048 54.7152 41.6184 54.7152H46.9522C47.2657 54.7152 47.5421 54.4878 47.5421 54.1743V45.7611H59.4056C59.7917 45.7611 60.1443 45.5249 60.3142 45.1779C60.4835 44.8312 60.4407 44.4012 60.2038 44.0964ZM40.0261 19.3011C40.5957 19.3011 41.0572 19.7627 41.0572 20.3322C41.0572 20.9017 40.5956 21.3634 40.0261 21.3634C39.4567 21.3634 38.995 20.9018 38.995 20.3322C38.9951 19.7628 39.4567 19.3011 40.0261 19.3011ZM37.2435 42.2959C36.2885 42.2959 35.5143 41.5218 35.5143 40.5667C35.5143 39.6118 36.2884 38.8375 37.2435 38.8375C38.1985 38.8375 38.9727 39.6117 38.9727 40.5667C38.9727 41.5218 38.1986 42.2959 37.2435 42.2959ZM40.4193 29.9461C39.4643 29.9461 38.69 29.1718 38.69 28.2168C38.69 27.2619 39.4642 26.4876 40.4193 26.4876C41.3742 26.4876 42.1485 27.2618 42.1485 28.2168C42.1485 29.1719 41.3742 29.9461 40.4193 29.9461ZM42.1433 36.4188C41.5739 36.4188 41.1122 35.9572 41.1122 35.3876C41.1122 34.8182 41.5738 34.3565 42.1433 34.3565C42.713 34.3565 43.1745 34.8181 43.1745 35.3876C43.1745 35.9572 42.7129 36.4188 42.1433 36.4188ZM49.2005 27.6522C49.7701 27.6522 50.2316 28.1138 50.2316 28.6834C50.2316 29.2529 49.77 29.7145 49.2005 29.7145C48.6309 29.7145 48.1693 29.2529 48.1693 28.6834C48.1693 28.1138 48.6309 27.6522 49.2005 27.6522ZM46.0649 22.0656C45.1099 22.0656 44.3357 21.2913 44.3357 20.3363C44.3357 19.3814 45.1098 18.6071 46.0649 18.6071C47.0198 18.6071 47.7941 19.3813 47.7941 20.3363C47.7941 21.2913 47.02 22.0656 46.0649 22.0656ZM49.2407 39.4731C48.2857 39.4731 47.5114 38.6989 47.5114 37.7439C47.5114 36.789 48.2857 36.0147 49.2407 36.0147C50.1956 36.0147 50.9699 36.789 50.9699 37.7439C50.9699 38.6989 50.1956 39.4731 49.2407 39.4731Z" fill="#25EE51"/>
<path d="M12.5701 21.8726C15.0971 21.8726 17.1456 19.8241 17.1456 17.2971C17.1456 14.7702 15.0971 12.7217 12.5701 12.7217C10.0432 12.7217 7.99469 14.7702 7.99469 17.2971C7.99469 19.8241 10.0432 21.8726 12.5701 21.8726Z" fill="#FF8888"/>
<path d="M29.4079 33.4015C28.424 33.4015 21.0339 33.4015 19.958 33.4015L21.4601 33.1443C22.5633 32.9554 23.3043 31.908 23.1154 30.8048C22.9266 29.7017 21.8789 28.9612 20.7759 29.1495L20.1824 29.2512L18.9341 26.9796C18.6299 26.4258 17.9342 26.2236 17.3807 26.5279C16.827 26.8321 16.6247 27.5276 16.9291 28.0814L17.7965 29.66L14.9009 30.1559L12.9414 26.7534L14.9166 28.8053L15.6481 28.6801L15.6791 26.7127C15.6934 25.8078 15.3456 24.9346 14.7129 24.2873C14.0802 23.64 13.2154 23.2723 12.3104 23.2658C12.3104 23.2658 9.5765 23.1741 9.26994 23.2441L9.18885 23.2434C8.28311 23.2369 7.41229 23.5928 6.77034 24.232C6.12839 24.871 5.7685 25.7403 5.7712 26.6462L5.80014 37.2179L3.74058 26.7407C3.56187 25.8317 2.68015 25.2399 1.77113 25.4184C0.862107 25.597 0.26996 26.4788 0.448788 27.3878L3.60698 43.4543C3.75804 44.2227 4.4198 44.7802 5.19757 44.8057L1.97293 53.1669C1.75074 53.7431 2.03773 54.3905 2.61382 54.6127C3.19038 54.835 3.83737 54.5477 4.05956 53.9718L5.62378 49.9159H13.2027L13.9895 47.6794H6.48628L7.5937 44.8082H14.9997L16.107 41.657L17.6813 41.6525L14.2254 51.4758C13.7798 52.7427 14.4454 54.131 15.7123 54.5768C16.9795 55.0226 18.3677 54.3565 18.8132 53.0899L23.4121 40.0178C23.6744 39.2725 23.5581 38.4464 23.1005 37.8024C22.6429 37.1582 21.8957 36.7744 21.111 36.7788L15.5456 36.7949L15.5409 35.5058C13.9481 35.7786 14.6479 35.6587 13.7273 35.8164C12.4796 36.03 11.2874 35.2532 10.9429 34.0658L9.42955 28.7757L12.0942 33.4028C12.4599 34.038 13.1338 34.4181 13.8497 34.4181C14.0799 34.4181 13.9392 34.4324 16.7792 33.9459C16.6784 34.1138 16.6195 34.3096 16.6195 34.5196C16.6195 35.1346 17.1221 35.6378 17.7377 35.6378C22.8395 35.6378 20.5458 35.6378 29.408 35.6378C30.0256 35.6378 30.5262 35.1372 30.5262 34.5196C30.5262 33.902 30.0254 33.4015 29.4079 33.4015ZM6.63241 41.4532L6.34331 39.9827C6.83596 40.7481 7.59323 41.2596 8.43756 41.4532H6.63241Z" fill="#FF8888"/>
</g>
<defs>
<clipPath id="clip0_358_1754">
<rect width="60" height="60" fill="white" transform="translate(0.416687)"/>
</clipPath>
</defs>
</svg>
