<svg width="20" height="27" viewBox="0 0 20 27" fill="none" xmlns="http://www.w3.org/2000/svg">
<path d="M10.0926 0.491211C4.76344 0.491211 0.25 5.03065 0.25 10.407C0.25 16.0376 5.48169 21.7958 9.00063 25.8428C9.01444 25.8591 9.58319 26.4904 10.2836 26.4904H10.3453C11.0465 26.4904 11.6112 25.8591 11.625 25.8428C14.927 22.0468 19.75 15.7865 19.75 10.407C19.75 5.02984 16.2294 0.491211 10.0926 0.491211ZM10.4184 24.7525C10.39 24.7809 10.3486 24.8126 10.312 24.8394C10.2746 24.8134 10.234 24.7809 10.2039 24.7525L9.779 24.2633C6.44287 20.4365 1.87419 15.195 1.87419 10.4061C1.87419 5.9114 5.63769 2.11459 10.0918 2.11459C15.6404 2.11459 18.1242 6.27865 18.1242 10.4061C18.1242 14.0413 15.5315 18.8691 10.4184 24.7525ZM10.0284 5.4109C7.33663 5.4109 5.15344 7.59327 5.15344 10.2859C5.15344 12.9785 7.33663 15.1609 10.0284 15.1609C12.7203 15.1609 14.9034 12.9777 14.9034 10.2859C14.9034 7.59409 12.7211 5.4109 10.0284 5.4109ZM10.0284 13.5359C8.23606 13.5359 6.74106 12.0425 6.74106 10.2501C6.74106 8.45777 8.19869 7.00015 9.99106 7.00015C11.7843 7.00015 13.2411 8.45777 13.2411 10.2501C13.2419 12.0425 11.8216 13.5359 10.0284 13.5359Z" fill="#AAAAAA"/>
</svg>
