<svg width="26" height="21" viewBox="0 0 26 21" fill="none" xmlns="http://www.w3.org/2000/svg">
<path d="M25.9363 3.10449C25.8283 2.55839 25.5846 2.04225 25.2291 1.60832C25.1569 1.51722 25.0814 1.43617 24.9988 1.35396C24.3664 0.718176 23.4867 0.353516 22.5852 0.353516H3.41473C2.50316 0.353516 1.64582 0.708985 1.00064 1.35431C0.918988 1.43577 0.843273 1.51762 0.76832 1.61162C0.414375 2.04372 0.171793 2.55915 0.0663203 3.10601C0.0222422 3.32077 0 3.54329 0 3.7684V17.2324C0 17.7008 0.0951641 18.1569 0.283816 18.5905C0.447078 18.9756 0.694789 19.3407 1.00044 19.6462C1.07743 19.7228 1.1539 19.7935 1.23556 19.8624C1.84666 20.3685 2.62047 20.647 3.41473 20.647H22.5852C23.3846 20.647 24.1576 20.3674 24.7671 19.8568C24.8485 19.7909 24.924 19.7217 24.9996 19.6462C25.295 19.351 25.5298 19.0119 25.6986 18.638L25.7209 18.5846C25.906 18.1593 26 17.7046 26 17.2324V3.7684C26 3.54623 25.9786 3.32224 25.9363 3.10449ZM1.76836 2.53284C1.81665 2.46216 1.8783 2.38959 1.95696 2.31032C2.34741 1.92007 2.86523 1.70531 3.41468 1.70531H22.5851C23.1394 1.70531 23.6574 1.92042 24.0435 2.31108C24.1102 2.37847 24.1739 2.45327 24.2294 2.52802L24.376 2.72505L14.1436 11.6431C13.8281 11.9196 13.422 12.0718 12.9998 12.0718C12.5819 12.0718 12.1761 11.92 11.8569 11.6434L1.63465 2.72759L1.76836 2.53284ZM1.35865 17.3513C1.35312 17.3146 1.35185 17.2739 1.35185 17.2324V4.04719L9.29251 10.9743L1.43198 17.8278L1.35865 17.3513ZM23.6082 19.0233C23.3008 19.2007 22.9469 19.2947 22.5852 19.2947H3.41473C3.05282 19.2947 2.69902 19.2007 2.3919 19.0233L2.07055 18.8371L10.1923 11.7592L11.0824 12.5334C11.6163 12.997 12.2972 13.2525 12.9999 13.2525C13.7053 13.2525 14.3873 12.997 14.9209 12.5334L15.8106 11.7589L23.9295 18.8375L23.6082 19.0233ZM24.6478 17.2324C24.6478 17.2732 24.647 17.3135 24.6419 17.3494L24.5715 17.8304L16.7076 10.978L24.6478 4.05054V17.2324Z" fill="#AAAAAA"/>
</svg>
