<svg width="16" height="25" viewBox="0 0 16 25" fill="none" xmlns="http://www.w3.org/2000/svg">
<path d="M12.875 0.515625H3.125C1.89163 0.51725 0.89225 1.51663 0.890625 2.75V22.25C0.89225 23.4834 1.89163 24.4827 3.125 24.4844H12.875C14.1084 24.4827 15.1077 23.4834 15.1094 22.25V2.75C15.1077 1.51663 14.1084 0.51725 12.875 0.515625ZM13.8906 22.25C13.8898 22.8106 13.4356 23.2648 12.875 23.2656H3.125C2.56438 23.2648 2.11019 22.8106 2.10938 22.25V2.75C2.11019 2.18938 2.56438 1.73519 3.125 1.73438H12.875C13.4356 1.73519 13.8898 2.18938 13.8906 2.75V22.25ZM9.625 20.4219H6.375C6.03862 20.4219 5.76562 20.6949 5.76562 21.0312C5.76562 21.3676 6.03862 21.6406 6.375 21.6406H9.625C9.96138 21.6406 10.2344 21.3676 10.2344 21.0312C10.2344 20.6949 9.96138 20.4219 9.625 20.4219Z" fill="#AAAAAA"/>
</svg>
