<svg width="34" height="34" viewBox="0 0 34 34" fill="none" xmlns="http://www.w3.org/2000/svg">
<path d="M9.44884 19.8333H5.66634C4.10801 19.8333 2.83301 21.1083 2.83301 22.6666V29.7499C2.83301 30.5291 3.47051 31.1666 4.24967 31.1666H9.44884C10.228 31.1666 10.8655 30.5291 10.8655 29.7499V21.2499C10.8655 20.4708 10.228 19.8333 9.44884 19.8333Z" fill="#FFEDA9"/>
<path d="M18.8844 14.1667H15.1019C13.5436 14.1667 12.2686 15.4417 12.2686 17.0001V29.7501C12.2686 30.5292 12.9061 31.1667 13.6852 31.1667H20.3011C21.0803 31.1667 21.7178 30.5292 21.7178 29.7501V17.0001C21.7178 15.4417 20.4569 14.1667 18.8844 14.1667Z" fill="#FDDB5D"/>
<path d="M28.3339 24.0833H24.5514C23.7723 24.0833 23.1348 24.7208 23.1348 25.4999V29.7499C23.1348 30.5291 23.7723 31.1666 24.5514 31.1666H29.7506C30.5298 31.1666 31.1673 30.5291 31.1673 29.7499V26.9166C31.1673 25.3583 29.8923 24.0833 28.3339 24.0833Z" fill="#FDDB5D" fill-opacity="0.51"/>
<path d="M21.2635 6.87158C21.7026 6.43241 21.8726 5.90825 21.731 5.45491C21.5893 5.00158 21.1501 4.67575 20.5268 4.57658L19.1668 4.34991C19.1101 4.34991 18.9826 4.25075 18.9543 4.19408L18.2035 2.69241C17.6368 1.54491 16.3476 1.54491 15.781 2.69241L15.0301 4.19408C15.016 4.25075 14.8885 4.34991 14.8318 4.34991L13.4717 4.57658C12.8484 4.67575 12.4234 5.00158 12.2676 5.45491C12.1259 5.90825 12.2959 6.43241 12.7351 6.87158L13.7834 7.93408C13.8401 7.97658 13.8826 8.14658 13.8684 8.20325L13.5709 9.50658C13.3442 10.4841 13.7126 10.9232 13.9534 11.0932C14.1943 11.2632 14.7185 11.4899 15.5826 10.9799L16.8576 10.2291C16.9143 10.1866 17.0985 10.1866 17.1551 10.2291L18.416 10.9799C18.8126 11.2207 19.1385 11.2916 19.3935 11.2916C19.691 11.2916 19.9035 11.1782 20.031 11.0932C20.2718 10.9232 20.6401 10.4841 20.4135 9.50658L20.116 8.20325C20.1018 8.13241 20.1443 7.97658 20.201 7.93408L21.2635 6.87158Z" fill="#FDDB5D"/>
</svg>
