<svg width="26" height="27" viewBox="0 0 26 27" fill="none" xmlns="http://www.w3.org/2000/svg">
<path d="M16.8736 12.8242C14.7416 12.8242 12.9736 14.5662 12.9736 16.7242C12.9736 18.8562 14.7156 20.6242 16.8736 20.6242C19.0316 20.6242 20.7736 18.8822 20.7736 16.7242C20.7736 14.5662 19.0056 12.8242 16.8736 12.8242ZM18.7716 16.2302L18.0436 16.9582C17.9656 17.0362 17.9396 17.1142 17.9396 17.1662L18.1216 18.2582C18.1736 18.5702 17.8876 18.3882 17.8876 18.3882L17.0036 17.9202C16.8736 17.8422 16.7436 17.9202 16.7436 17.9202L15.8336 18.3882C15.5996 18.5182 15.5996 18.3882 15.5996 18.2842L15.7816 17.2702C15.8076 17.0622 15.7036 16.9842 15.7036 16.9582L15.0536 16.3342L14.9756 16.2562C14.8976 16.1782 14.8456 16.0482 15.1316 15.9962L16.0416 15.8662C16.1716 15.8402 16.2496 15.7882 16.2756 15.7362L16.7696 14.7222C16.7956 14.6442 16.8996 14.5662 17.0036 14.7742L17.4976 15.7622C17.5236 15.8142 17.6016 15.8402 17.6536 15.8662H17.7316L18.6936 15.9962H18.7196C18.7716 16.0222 18.9536 16.0742 18.7716 16.2302Z" fill="#AAAAAA"/>
<path d="M12.7136 20.5725C12.9736 20.5725 13.1296 20.2605 12.9736 20.0525C12.1416 19.1165 11.6736 17.9205 11.6736 16.6725C11.6736 15.7885 11.9596 14.8005 12.4276 14.0205C12.9736 13.0845 13.5976 12.6945 14.0916 11.9665C14.8976 10.7705 15.0536 9.05446 14.5336 7.75446C14.0136 6.42846 12.7916 5.64846 11.3616 5.67446C9.93159 5.70046 8.76159 6.58446 8.31959 7.91046C7.79959 9.36646 8.03359 11.1345 9.20359 12.2265C9.69759 12.6685 10.1136 13.3705 9.87959 14.0465C9.82759 14.1765 9.67159 14.3845 9.30759 14.5405C7.82559 15.1905 6.31759 15.9705 5.64159 17.0625C5.51159 17.2705 5.25159 17.7905 5.22559 18.5185C5.22559 18.7005 5.22559 18.8565 5.25159 19.0905C5.25159 19.1945 5.25159 19.1945 5.27759 19.2985C5.35559 19.7405 5.61559 20.1305 6.00559 20.3645C6.16159 20.4425 6.52559 20.5725 7.22759 20.5725H12.7136Z" fill="#AAAAAA"/>
</svg>
